<svg id="Layer_1" data-name="Layer 1" xmlns="http://www.w3.org/2000/svg" viewBox="21 15 800 150">
<defs><style>.cls-1,.cls-3{fill:#fff;}.cls-2{fill:#ed1d32;}.cls-3,.cls-4,.cls-7{stroke:#fff;}.cls-10,.cls-11,.cls-3,.cls-9{stroke-miterlimit:10;}.cls-3{stroke-width:0.47px;}.cls-4,.cls-7{fill:none;stroke-linejoin:round;stroke-width:1.5px;}.cls-4,.cls-9{stroke-linecap:round;}.cls-5{fill:#ed0018;}.cls-10,.cls-11,.cls-5{fill-rule:evenodd;}.cls-6{fill:#ea0029;}.cls-8{fill:#004acc;}.cls-10,.cls-9{fill:#69f;stroke:#004acc;stroke-width:0.35px;}.cls-11{fill:#c1c1c1;stroke:#231f20;stroke-width:0.09px;}
</style></defs>
<title>HeaderOnDark</title>
<path class="cls-1" d="M265.51,151.84l7.93-9.58h-8v-2h9.75c.91,0,1.28.43,1.28,1a1.37,1.37,0,0,1-.39,1l-7.91,9.69Z"/>
<path class="cls-1" d="M281.32,151.84a3.41,3.41,0,0,1-3.73-3.51,2.59,2.59,0,0,1,1.82-2.62,2.34,2.34,0,0,1-1.6-2.48c0-2,1.49-3,3.74-3h4.78c2.25,0,3.76,1,3.76,3a2.34,2.34,0,0,1-1.62,2.48,2.59,2.59,0,0,1,1.82,2.62,3.4,3.4,0,0,1-3.73,3.51Zm.08-5.05c-1.13,0-1.77.55-1.77,1.5s.91,1.52,2.19,1.52h4.24c1.28,0,2.19-.51,2.19-1.52s-.64-1.5-1.77-1.5Zm.53-4.55c-1.32,0-2.08.37-2.08,1.44s.55,1.41,1.7,1.41h4.78c1.15,0,1.7-.4,1.7-1.41s-.75-1.44-2.08-1.44Z"/>
<path class="cls-1" d="M293,146.52v-3.9h-1.8v-.83h4.43v.83h-1.8v3.9Z"/>
<path class="cls-1" d="M296.2,146.54v-4.75H297v4.75Zm3.81,0v-2h-2.38v-.74H300v-2h.83v4.75Z"/>
<path class="cls-1" d="M316.05,148l-1.8,3.4a1.17,1.17,0,0,1-2.09,0l-6-11.13h2.42l4.7,8.93L315,146l-3-5.77h2.45l4.48,8.93,4.73-8.93h2.26l-6,11.13a1.17,1.17,0,0,1-1.05.64,1.13,1.13,0,0,1-1-.64Z"/>
<path class="cls-1" d="M330.57,151.84a4,4,0,0,1-3.94-4.15,3.79,3.79,0,0,1,3.94-4h2a3.79,3.79,0,0,1,4,4,4,4,0,0,1-4,4.15Zm2-1.42a2.52,2.52,0,0,0,2.56-2.66,2.49,2.49,0,0,0-2.56-2.62h-2a2.48,2.48,0,0,0-2.52,2.62,2.51,2.51,0,0,0,2.52,2.66Z"/>
<path class="cls-1" d="M345.21,151.84l-2-2.26h-3v-1.25h3.39a1.43,1.43,0,0,0,1.55-1.63,1.4,1.4,0,0,0-1.55-1.56h-4.43v6.7h-1.4v-8.12h5.83a2.73,2.73,0,0,1,2.94,3,2.66,2.66,0,0,1-1.67,2.69l2.45,2.47Z"/>
<path class="cls-1" d="M348,151.84v-8.12h1.42v6.7h5.46v1.42Z"/>
<path class="cls-1" d="M355.86,151.84v-8.12h4.7a3.8,3.8,0,0,1,3.95,4,4,4,0,0,1-3.95,4.15Zm4.7-1.42a2.52,2.52,0,0,0,2.53-2.66,2.49,2.49,0,0,0-2.53-2.62h-3.3v5.28Z"/>
<path class="cls-1" d="M370.66,151.84v-2h8.7a1.49,1.49,0,0,0,1.69-1.52c0-1-.6-1.5-1.69-1.5H374a3.24,3.24,0,0,1-3.54-3.3c0-1.87,1.26-3.26,3.57-3.26h8.33v2h-8.33a1.42,1.42,0,1,0,0,2.83h5.31c2.35,0,3.61,1.1,3.61,3.35,0,1.95-1.18,3.4-3.61,3.4Z"/>
<path class="cls-1" d="M388.11,151.84a4,4,0,0,1-3.94-4.15,3.78,3.78,0,0,1,3.94-4h4.4v1.42h-4.4a2.49,2.49,0,0,0-2.53,2.62,2.52,2.52,0,0,0,2.53,2.66h4.4v1.42Z"/>
<path class="cls-1" d="M393.74,151.84v-8.12h1.41v8.12Z"/>
<path class="cls-1" d="M396.64,151.84v-8.12h7.25v1.42h-5.84v5.28h5.85v1.42Zm2.44-3.53v-1.2h4.51v1.2Z"/>
<path class="cls-1" d="M406.43,145.89v6h-1.35v-7.37c0-.53.28-.85.73-.85a.78.78,0,0,1,.6.29l5.73,5.68v-5.94h1.35v7.44c0,.54-.29.85-.7.85a.9.9,0,0,1-.65-.3Z"/>
<path class="cls-1" d="M418.57,151.84a4,4,0,0,1-3.94-4.15,3.78,3.78,0,0,1,3.94-4H423v1.42h-4.4a2.48,2.48,0,0,0-2.52,2.62,2.51,2.51,0,0,0,2.52,2.66H423v1.42Z"/>
<path class="cls-1" d="M424.12,151.84v-8.12h7.25v1.42h-5.84v5.28h5.85v1.42Zm2.45-3.53v-1.2h4.5v1.2Z"/>
<path class="cls-1" d="M437.59,151.84V140.23h9.85v2H439.6v9.58Zm3.49-4.81v-1.77H447V147Z"/>
<path class="cls-1" d="M448.61,151.84v-8.12H450v8.12Z"/>
<path class="cls-1" d="M455.22,151.84a4,4,0,0,1-3.94-4.15,3.79,3.79,0,0,1,3.94-4h4.41v1.42h-4.41a2.48,2.48,0,0,0-2.52,2.62,2.51,2.51,0,0,0,2.52,2.66h4.41v1.42Z"/>
<path class="cls-1" d="M463.38,151.84v-6.7h-3.09v-1.42h7.59v1.42h-3.09v6.7Z"/>
<path class="cls-1" d="M468.89,151.84v-8.12h1.42v8.12Z"/>
<path class="cls-1" d="M475.5,151.84a4,4,0,0,1-3.94-4.15,3.79,3.79,0,0,1,3.94-4h2a3.79,3.79,0,0,1,4,4,4,4,0,0,1-4,4.15Zm2-1.42a2.52,2.52,0,0,0,2.56-2.66,2.49,2.49,0,0,0-2.56-2.62h-2a2.48,2.48,0,0,0-2.52,2.62,2.51,2.51,0,0,0,2.52,2.66Z"/>
<path class="cls-1" d="M483.92,145.89v6h-1.35v-7.37c0-.53.28-.85.73-.85a.78.78,0,0,1,.6.29l5.73,5.68v-5.94H491v7.44c0,.54-.29.85-.7.85a.9.9,0,0,1-.65-.3Z"/>
<path class="cls-1" d="M502.64,151.84a5.64,5.64,0,0,1-5.63-5.92,5.42,5.42,0,0,1,5.63-5.69h6.29v2h-6.29A3.55,3.55,0,0,0,499,146a3.59,3.59,0,0,0,3.6,3.8h6.29v2Z"/>
<path class="cls-1" d="M514,151.84a4,4,0,0,1-4-4.15,3.79,3.79,0,0,1,4-4h2a3.79,3.79,0,0,1,4,4,4,4,0,0,1-4,4.15Zm2-1.42a2.52,2.52,0,0,0,2.56-2.66,2.49,2.49,0,0,0-2.56-2.62h-2a2.49,2.49,0,0,0-2.53,2.62,2.52,2.52,0,0,0,2.53,2.66Z"/>
<path class="cls-1" d="M522.4,145.89v6H521v-7.37c0-.53.28-.85.73-.85a.78.78,0,0,1,.6.29l5.73,5.68v-5.94h1.36v7.44c0,.54-.29.85-.71.85a.93.93,0,0,1-.65-.3Z"/>
<path class="cls-1" d="M530.28,143.72H532L535.7,150l3.67-6.25H541l-4.68,7.77a.74.74,0,0,1-1.37,0Z"/>
<path class="cls-1" d="M541.87,151.84v-8.12h7.25v1.42h-5.84v5.28h5.85v1.42Zm2.45-3.53v-1.2h4.5v1.2Z"/>
<path class="cls-1" d="M551.67,145.89v6h-1.36v-7.37c0-.53.28-.85.73-.85a.78.78,0,0,1,.6.29l5.73,5.68v-5.94h1.35v7.44c0,.54-.29.85-.7.85a.91.91,0,0,1-.65-.3Z"/>
<path class="cls-1" d="M562.7,151.84v-6.7h-3.08v-1.42h7.58v1.42h-3.08v6.7Z"/>
<path class="cls-1" d="M568.21,151.84v-8.12h1.42v8.12Z"/>
<path class="cls-1" d="M574.83,151.84a4,4,0,0,1-4-4.15,3.79,3.79,0,0,1,4-4h2a3.79,3.79,0,0,1,4,4,4,4,0,0,1-4,4.15Zm2-1.42a2.52,2.52,0,0,0,2.56-2.66,2.49,2.49,0,0,0-2.56-2.62h-2a2.48,2.48,0,0,0-2.53,2.62,2.52,2.52,0,0,0,2.53,2.66Z"/>
<path class="cls-1" d="M583.25,145.89v6h-1.36v-7.37c0-.53.28-.85.73-.85a.78.78,0,0,1,.6.29l5.73,5.68v-5.94h1.36v7.44c0,.54-.3.85-.71.85a.93.93,0,0,1-.65-.3Z"/>
<path class="cls-1" d="M592.06,153.72v-4.15h2l-.8,4.15Z"/>
<path class="cls-1" d="M609.91,148l-1.8,3.4a1.14,1.14,0,0,1-1,.64,1.16,1.16,0,0,1-1.05-.64l-6-11.13h2.42l4.7,8.93,1.75-3.16-3-5.77h2.44l4.48,8.93,4.73-8.93h2.26l-6,11.13a1.17,1.17,0,0,1-1,.64,1.13,1.13,0,0,1-1-.64Z"/>
<path class="cls-1" d="M620.73,151.84v-8.12H628v1.42h-5.85v5.28H628v1.42Zm2.44-3.53v-1.2h4.5v1.2Z"/>
<path class="cls-1" d="M629.2,151.84v-8.12h1.42v6.7h5.46v1.42Z"/>
<path class="cls-1" d="M637.1,151.84v-8.12h1.42v6.7H644v1.42Z"/>
<path class="cls-1" d="M645.07,151.84v-8.12h1.42v8.12Z"/>
<path class="cls-1" d="M649.29,145.89v6h-1.35v-7.37c0-.53.28-.85.73-.85a.78.78,0,0,1,.6.29l5.73,5.68v-5.94h1.35v7.44c0,.54-.29.85-.7.85a.9.9,0,0,1-.65-.3Z"/>
<path class="cls-1" d="M661.43,151.84a4,4,0,0,1-3.94-4.15,3.78,3.78,0,0,1,3.94-4h4.4v1.42h-4.4a2.48,2.48,0,0,0-2.52,2.62,2.51,2.51,0,0,0,2.52,2.66h3.48v-2.11h-3.67v-1.2h5.09v4.73Z"/>
<path class="cls-1" d="M670.24,151.84v-6.7h-3.08v-1.42h7.58v1.42h-3.08v6.7Z"/>
<path class="cls-1" d="M679.2,151.84a4,4,0,0,1-4-4.15,3.79,3.79,0,0,1,4-4h2a3.79,3.79,0,0,1,4,4,4,4,0,0,1-4,4.15Zm2-1.42a2.52,2.52,0,0,0,2.56-2.66,2.49,2.49,0,0,0-2.56-2.62h-2a2.49,2.49,0,0,0-2.53,2.62,2.52,2.52,0,0,0,2.53,2.66Z"/>
<path class="cls-1" d="M687.62,145.89v6h-1.35v-7.37c0-.53.27-.85.72-.85a.78.78,0,0,1,.6.29l5.74,5.68v-5.94h1.35v7.44c0,.54-.29.85-.71.85a.89.89,0,0,1-.64-.3Z"/>
<path class="cls-1" d="M696.43,153.72v-4.15h2l-.8,4.15Z"/>
<path class="cls-1" d="M707.06,143.35v8.49h-1.93V141.3c0-.75.39-1.21,1-1.21a1.14,1.14,0,0,1,.86.42l8.19,8.12v-8.49h1.93v10.63c0,.76-.41,1.21-1,1.21a1.28,1.28,0,0,1-.93-.43Z"/>
<path class="cls-1" d="M718.8,151.84v-8.12h7.25v1.42h-5.84v5.28h5.85v1.42Zm2.44-3.53v-1.2h4.51v1.2Z"/>
<path class="cls-1" d="M733.65,149.12l-1.26,2.38a.82.82,0,0,1-.73.45.8.8,0,0,1-.73-.45l-4.2-7.78h1.69l3.29,6.24,1.23-2.21-2.11-4h1.7l3.14,6.24,3.31-6.24h1.58l-4.19,7.78a.83.83,0,0,1-.74.45.81.81,0,0,1-.73-.45Z"/>
<path class="cls-1" d="M747.21,151.84a1,1,0,0,1-1.15-1,1.22,1.22,0,0,1,.41-.86l7.71-7.77h-8v-1.94h10.15a1.06,1.06,0,0,1,1.15,1,1.22,1.22,0,0,1-.41.86l-7.71,7.78h8.07v1.93Z"/>
<path class="cls-1" d="M758.92,151.84v-8.12h7.25v1.42h-5.84v5.28h5.85v1.42Zm2.44-3.53v-1.2h4.51v1.2Z"/>
<path class="cls-1" d="M775.86,151.84l-1.22-2.05H770.8l.67-1.15H774l-1.81-3-3.68,6.24h-1.62l4.66-7.78a.79.79,0,0,1,.7-.45.77.77,0,0,1,.68.45l4.68,7.78Z"/>
<path class="cls-1" d="M778.44,151.84v-8.12h1.42v6.7h5.46v1.42Z"/>
<path class="cls-1" d="M794.8,151.84l-1.22-2.05h-3.84l.67-1.15h2.49l-1.81-3-3.68,6.24h-1.62l4.66-7.78a.79.79,0,0,1,.7-.45.77.77,0,0,1,.68.45l4.68,7.78Z"/>
<path class="cls-1" d="M798.69,145.89v6h-1.35v-7.37c0-.53.28-.85.73-.85a.78.78,0,0,1,.6.29l5.73,5.68v-5.94h1.35v7.44c0,.54-.29.85-.7.85a.91.91,0,0,1-.65-.3Z"/>
<path class="cls-1" d="M807.13,151.84v-8.12h4.7a3.8,3.8,0,0,1,3.95,4,4,4,0,0,1-3.95,4.15Zm4.7-1.42a2.52,2.52,0,0,0,2.53-2.66,2.49,2.49,0,0,0-2.53-2.62h-3.3v5.28Z"/>
<path class="cls-1" d="M293.75,114.5c-16.92,0-29.41-13.33-29.41-30.92,0-17.83,12.49-29.66,29.41-29.66h32.83V64.5H293.75c-10.83,0-18.83,8.09-18.83,19.58s7.91,19.84,18.83,19.84h32.83V114.5Z"/>
<path class="cls-1" d="M352.69,114.5c-11.84,0-20.58-9.33-20.58-21.64,0-12.48,8.74-20.76,20.58-20.76H363c12.25,0,20.76,8.46,20.76,20.76S375.09,114.5,363,114.5ZM363,107.09c7.82,0,13.36-5.89,13.36-13.88s-5.54-13.7-13.36-13.7H352.69c-7.58,0-13.18,5.65-13.18,13.7s5.54,13.88,13.18,13.88Z"/>
<path class="cls-2" d="M401,70.17V114.5H390.93v-55c0-3.92,2.09-6.34,5.42-6.34a6.06,6.06,0,0,1,4.5,2.17l42.74,42.41V53.42h10.08v55.49c0,4-2.16,6.34-5.25,6.34a6.73,6.73,0,0,1-4.83-2.25Z"/>
<path class="cls-2" d="M467.75,114.5c-3.17,0-6-1.84-6-5.42a6.39,6.39,0,0,1,2.17-4.5L504.16,64H462.5V53.92h53c3.09,0,6,1.84,6,5.42a6.42,6.42,0,0,1-2.16,4.5l-40.25,40.57h42.16V114.5Z"/>
<path class="cls-1" d="M532.42,114.23V72.42h37.33v7.3H539.67v27.21h30.14v7.3ZM545,96.06V89.9H568.2v6.16Z"/>
<path class="cls-3" d="M619.5,114.23l-6.27-10.52H593.45l3.45-5.93h12.82l-9.31-15.64-19,32.09h-8.34l24-40a4.07,4.07,0,0,1,3.56-2.36c1.61,0,2.65.92,3.51,2.36l24.1,40Z"/>
<path class="cls-1" d="M632.62,114.23V72.42h7.3v34.51h28.13v7.3Z"/>
<path class="cls-1" d="M716.71,114.23l-6.27-10.52H690.65l3.45-5.93h12.83l-9.32-15.64-19,32.09h-8.34l24-40a4.08,4.08,0,0,1,3.57-2.36c1.61,0,2.64.92,3.51,2.36l24.09,40Z"/>
<path class="cls-1" d="M736.61,83.63v30.6h-7v-38c0-2.7,1.44-4.37,3.74-4.37a4.14,4.14,0,0,1,3.1,1.5L766,102.67V72.07h7v38.31c0,2.76-1.5,4.37-3.63,4.37A4.65,4.65,0,0,1,766,113.2Z"/>
<path class="cls-1" d="M778.91,106.93h17c7.53,0,13-5.81,13-13.69s-5.52-13.52-13-13.52h-17v-7.3h17c11.79,0,20.36,8.34,20.36,20.47s-8.57,21.34-20.36,21.34h-17Z"/>
<line class="cls-4" x1="264.34" y1="127.17" x2="816.24" y2="127.17"/>
<g id="Flag_Stars" data-name="Flag Stars">
<polygon class="cls-5" points="358.4 95.42 354.34 98.53 355.9 93.52 351.86 90.44 356.85 90.45 358.4 85.41 359.94 90.45 364.94 90.44 360.89 93.52 362.45 98.53 358.4 95.42"/>
<path class="cls-6" d="M358.4,86.12l1.39,4.54h4.53l-3.67,2.79L362,97.75l.06.22-.29-.23-3.36-2.58L355,97.79l-.22.18.05-.17,1.35-4.36-3.66-2.79H357l1.4-4.54m0-1.42L358,86l-1.3,4.24h-5.47l1,.75,3.44,2.62-1.27,4.08-.05.16L354,99.1l1-.8.23-.18,3.18-2.43,3.1,2.38.3.23,1,.8-.39-1.26-.06-.21-1.26-4L364.57,91l1-.75h-5.47L358.79,86l-.39-1.3Z"/>
<path class="cls-1" d="M358.4,86.12l1.39,4.54h4.53l-3.67,2.79L362,97.75l.06.22-.29-.23-3.36-2.58L355,97.79l-.22.18.05-.17,1.35-4.36-3.66-2.79H357l1.4-4.54m0-.71-.2.65-1.35,4.39h-5l.5.37,3.55,2.71-1.31,4.22,0,.16-.2.63.52-.4.23-.17,3.31-2.54,3.23,2.48.3.23.52.4-.2-.63-.06-.21-1.3-4.17,3.55-2.71.5-.37h-5l-1.35-4.39-.19-.65Z"/>
<polygon class="cls-5" points="356.5 51.87 353.42 49.53 357.22 49.54 358.4 45.7 359.57 49.54 363.38 49.53 360.3 51.87 361.48 55.69 358.4 53.32 355.31 55.69 356.5 51.87"/>
<path class="cls-6" d="M358.4,46.41l1,3.34h3.34l-2.71,2L361,55l0,.16-.22-.17-2.47-1.9L355.87,55l-.17.13,0-.12,1-3.22-2.7-2h3.33l1-3.34m0-1.42-.4,1.29-.94,3h-4.27l1,.75L356.25,52l-.91,2.93,0,.12-.39,1.26,1-.8.17-.13,2.28-1.74,2.22,1.7.22.17,1,.8L361.49,55l-.05-.16-.9-2.89L363,50.07l1-.75h-4.27l-.94-3L358.4,45Z"/>
<path class="cls-1" d="M358.4,46.41l1,3.34h3.34l-2.71,2L361,55l0,.16-.22-.17-2.47-1.9L355.87,55l-.17.13,0-.12,1-3.22-2.7-2h3.33l1-3.34m0-.71-.2.65-1,3.19h-3.8l.49.37,2.58,2L355.54,55l0,.12-.19.62.52-.4.17-.12,2.4-1.85,2.34,1.81.22.16.52.4-.19-.62-.05-.16-.94-3,2.58-2,.5-.37h-3.81l-1-3.19-.19-.65Z"/>
<polygon class="cls-5" points="340.75 62.91 337.67 65.27 338.85 61.45 335.77 59.11 339.57 59.12 340.75 55.28 341.93 59.12 345.73 59.11 342.65 61.45 343.84 65.28 340.75 62.91"/>
<path class="cls-6" d="M340.75,56l1,3.34h3.33l-2.7,2.06,1,3.17.05.16-.22-.17-2.48-1.9-2.52,1.94-.17.13,0-.12,1-3.21-2.71-2.06h3.34l1-3.34m0-1.42-.4,1.3-.93,3h-4.27l1,.75,2.47,1.88-.91,2.94,0,.12-.39,1.25,1-.8.17-.13,2.27-1.74,2.22,1.7.22.17,1.05.8-.39-1.25-.05-.16-.9-2.9,2.47-1.88,1-.75h-4.26l-.94-3-.4-1.3Z"/>
<path class="cls-1" d="M340.75,56l1,3.34h3.33l-2.7,2.06,1,3.17.05.16-.22-.17-2.48-1.9-2.52,1.94-.17.13,0-.12,1-3.21-2.71-2.06h3.34l1-3.34m0-.71-.2.65-1,3.19h-3.8l.5.38,2.58,2-1,3.08,0,.12-.2.63.53-.4.16-.13,2.4-1.84,2.35,1.8.22.17.52.4-.19-.63,0-.16-1-3,2.59-2,.49-.38h-3.8l-1-3.19-.2-.65Z"/>
<polygon class="cls-5" points="375.58 62.91 372.5 65.27 373.69 61.45 370.6 59.11 374.4 59.12 375.58 55.28 376.76 59.12 380.56 59.11 377.48 61.45 378.68 65.28 375.58 62.91"/>
<path class="cls-6" d="M375.58,56l1,3.34h3.33l-2.7,2.06,1,3.17,0,.16-.22-.17-2.48-1.9-2.52,1.94-.17.13,0-.12,1-3.21-2.71-2.06h3.34l1-3.34m0-1.42-.39,1.3-.94,3H370l1,.75,2.47,1.88-.91,2.94,0,.12-.39,1.25,1-.8.17-.13,2.27-1.74,2.23,1.7L378,65l1,.8-.39-1.25-.05-.16-.9-2.9,2.47-1.88,1-.75h-4.26l-.94-3-.4-1.3Z"/>
<path class="cls-1" d="M375.58,56l1,3.34h3.33l-2.7,2.06,1,3.17,0,.16-.22-.17-2.48-1.9-2.52,1.94-.17.13,0-.12,1-3.21-2.71-2.06h3.34l1-3.34m0-.71-.2.65-1,3.19H370.6l.5.38,2.58,2-.95,3.08,0,.12-.2.63.53-.4.16-.13,2.4-1.84,2.35,1.8.22.17.52.4-.19-.63-.05-.16-.95-3,2.59-2,.49-.38h-3.8l-1-3.19-.2-.65Z"/>
</g>
<line class="cls-7" x1="531.47" y1="62.38" x2="816.24" y2="62.38"/>
<path class="cls-8" d="M77.47,91.78c1,45.67,39,38.81,48.92,33.67s10.12-18.75,9.77-22.42a20.63,20.63,0,0,0-2.86-7.6,14.28,14.28,0,0,1,.57,4.56c0,6.9-4.86,14.48-16.08,14.48A23.07,23.07,0,0,1,95,95.74c-3-16.65,4-45.27,36.87-44.68,32.53.59,40.44,30.09,42.07,37.8,1.05,5,4.07,19.65,4.07,19.65s2.63-15,2.21-21.51C177.75,49.5,144.32,39.85,135,39.2c-10.88-.76-33.91,3.37-42.4,10.2C88.55,52.63,76.81,61.09,77.47,91.78Z"/>
<path class="cls-9" d="M120,134.74c12.19-3.49,19.3-12,19.25-23.67,0-10.91-4.66-14.55-6-15.88.63,1.57,2.83,6.64,2.83,10.53a18.89,18.89,0,0,1-14.91,18.75c-19.87,3.75-37.76-10.1-37.76-34,0-18.83,10.13-35.68,25.71-43.85,3.65-1.92,17-4.28,24.24-4.28,13.59,0,22.69,6.23,31.74,15,9.42,9.14,13.57,21.31,13.57,35.46l5.15,1.52c0-35-23.84-51.63-51.16-55.12-19.59-2.5-35.23-1.62-47.68,12.67a61.72,61.72,0,0,0-15.61,40.5C69.44,122.6,99.88,140.16,120,134.74Z"/>
<path class="cls-8" d="M170.58,101.32c-1-45.67-39-38.81-48.92-33.66s-10.12,18.75-9.77,22.41a20.63,20.63,0,0,0,2.86,7.6,14.57,14.57,0,0,1-.57-4.56c0-6.9,4.86-14.48,16.08-14.48A23.07,23.07,0,0,1,153.1,97.37c3,16.64-4,45.26-36.87,44.67-32.53-.59-40.44-30.09-42.07-37.8-1-5-4.07-19.65-4.07-19.65s-2.62,15-2.21,21.51c2.42,37.5,35.85,47.15,45.22,47.8,10.87.76,33.9-3.37,42.39-10.2C159.5,140.47,171.24,132,170.58,101.32Z"/>
<path class="cls-9" d="M128,58.36c-12.19,3.49-19.3,12-19.25,23.67,0,10.91,4.66,14.55,6,15.89-.63-1.58-2.83-6.65-2.83-10.54a18.89,18.89,0,0,1,14.92-18.75c19.87-3.75,37.75,10.1,37.75,34,0,18.84-10.13,35.68-25.7,43.85-3.66,1.93-17,4.28-24.24,4.28-13.6,0-22.7-6.23-31.75-15-9.42-9.13-13.57-21.3-13.57-35.46l-5.15-1.51c0,35,23.84,51.62,51.16,55.11,19.59,2.5,35.23,1.62,47.68-12.67a61.7,61.7,0,0,0,15.61-40.5C178.61,70.5,148.18,52.94,128,58.36Z"/>
<g id="FishScale">
<path class="cls-8" d="M153.42,139.75c16.7,0,31.87-36.06,31.05-50C182,48.63,139.87,51,142.37,51.54c14.31,2.9,30.71,18.6,31.64,45C174.62,114,164.42,130.17,153.42,139.75Z"/>
<path class="cls-8" d="M165.93,118.15c-2.71,8.82-8.15,17.92-16.69,24.17,0,0,9.93-4.78,15.23-13.81,3.79-6.45,5.49-9,5.49-9a2.91,2.91,0,0,1-2.67.25C165.8,119.07,165.93,118.15,165.93,118.15Z"/>
<g id="FishScaleCut">
<path class="cls-8" d="M163.8,84.15a11.65,11.65,0,0,0,4.8-.72c2.81-1.27,3.92-4.49,3.71-5-.8-1.84-2.2-4.6-2.72-5.5A7.36,7.36,0,0,1,166,78c-1.72.86-4.13.78-5.75.65A34.06,34.06,0,0,1,163.8,84.15Z"/>
<path class="cls-8" d="M169.51,88.8a8.43,8.43,0,0,1-3.76-.18,39.13,39.13,0,0,1,1.57,5.65,9.59,9.59,0,0,0,3.41.11c2.85-.55,4.56-3.27,4.48-3.75-.34-1.86-1-4.69-1.31-5.63A6.94,6.94,0,0,1,169.51,88.8Z"/>
<path class="cls-8" d="M174.85,97.71a5.38,5.38,0,0,1-3.72,2.51,7,7,0,0,1-3.09-.57c.08,1.1.13,2.22.13,3.36,0,.31,0,.61,0,.91a8.2,8.2,0,0,0,3.39.69c2.24-.16,3.81-2.08,3.79-2.46C175.24,100.69,175,98.46,174.85,97.71Z"/>
<path class="cls-8" d="M170,110.79a5.2,5.2,0,0,1-2.27-1.08c-.13,1.05-.29,2.08-.49,3.11a6,6,0,0,0,2.3,1.09,3.34,3.34,0,0,0,3-1.06c.19-1,.39-2.63.43-3.17A3.82,3.82,0,0,1,170,110.79Z"/>
</g>
</g>
<g id="FishScale-2" data-name="FishScale">
<path class="cls-8" d="M94.63,53.35c-16.7,0-31.87,36.07-31,50,2.44,41.16,44.6,38.76,42.1,38.25-14.31-2.9-30.7-18.6-31.63-45C73.43,79.13,83.63,62.93,94.63,53.35Z"/>
<path class="cls-8" d="M82.12,75C84.83,66.13,90.27,57,98.81,50.78c0,0-9.92,4.78-15.23,13.81-3.79,6.45-5.49,9-5.49,9a2.88,2.88,0,0,1,2.67-.25C82.25,74,82.12,75,82.12,75Z"/>
<g id="FishScaleCut-2" data-name="FishScaleCut">
<path class="cls-8" d="M84.25,109a11.5,11.5,0,0,0-4.8.73c-2.81,1.26-3.92,4.48-3.71,5,.81,1.83,2.2,4.59,2.72,5.49a7.39,7.39,0,0,1,3.61-5c1.72-.86,4.14-.78,5.76-.65A34.11,34.11,0,0,1,84.25,109Z"/>
<path class="cls-8" d="M78.54,104.3a8.43,8.43,0,0,1,3.76.18,39.13,39.13,0,0,1-1.57-5.65,9.54,9.54,0,0,0-3.4-.11c-2.86.55-4.57,3.27-4.48,3.75.33,1.86,1,4.69,1.3,5.63A6.94,6.94,0,0,1,78.54,104.3Z"/>
<path class="cls-8" d="M73.2,95.39a5.38,5.38,0,0,1,3.72-2.51,7,7,0,0,1,3.09.57c-.08-1.1-.13-2.22-.13-3.36,0-.3,0-.61,0-.91a8.2,8.2,0,0,0-3.39-.69c-2.24.16-3.81,2.08-3.79,2.46C72.81,92.41,73.07,94.64,73.2,95.39Z"/>
<path class="cls-8" d="M78.06,82.31a5.21,5.21,0,0,1,2.26,1.08c.14-1,.3-2.08.49-3.11a5.9,5.9,0,0,0-2.3-1.09,3.36,3.36,0,0,0-3,1.06c-.19,1-.39,2.63-.43,3.17A3.86,3.86,0,0,1,78.06,82.31Z"/>
</g>
</g>
<path class="cls-10" d="M186.45,96.55A62.43,62.43,0,1,1,124,34.12,62.43,62.43,0,0,1,186.45,96.55ZM124,44.3a52.25,52.25,0,1,0,52.24,52.25A52.25,52.25,0,0,0,124,44.3Z"/>
<g id="Rocket_and_swoosh_v3_Outlines" data-name="Rocket and swoosh v3 Outlines">
<path id="Swoosh" class="cls-1" d="M194.53,66.57c-4.68,4.24-20.84,17.58-27.12,22.18q-6.67,4.89-13.47,9.6c-6.08,4.21-12.28,8.25-18.52,12.21q-9.94,6.31-20.1,12.26T94.58,134.16c-6.93,3.54-14,6.92-21.07,10.05s-14.44,6.1-21.88,8.53a111.53,111.53,0,0,1-11.39,3.14c-3.73.79-7.74,1.5-11.56,1-1.53-.21-3.37-.69-4.26-2.08-1-1.54-.46-3.6.13-5.18a35,35,0,0,1,5.95-9.54c4.84-6,10.57-11.21,16.34-16.33q6.27-5.55,12.71-10.89a.31.31,0,0,0-.39-.49q-6.63,5.13-13.08,10.49c-1.49,1.23-3,2.46-4.43,3.72-5.78,5-11.48,10.24-16,16.45a31,31,0,0,0-2.86,4.71,12.47,12.47,0,0,0-1.42,5.19,6,6,0,0,0,2,4.65,9.88,9.88,0,0,0,5,2.09A35.83,35.83,0,0,0,40,159.19a107.68,107.68,0,0,0,11.47-2.66,222.46,222.46,0,0,0,22.28-7.77c7.35-3,14.6-6.2,21.75-9.62s14.26-7,21.28-10.71,13.89-7.47,20.65-11.52c4.43-2.65,8.78-5.46,13-8.38s8.27-5.89,12.27-9q9.07-7,17.53-14.79c5.5-5,11.57-10.54,16.65-16Z"/>
<path id="Rocket" class="cls-11" d="M226.55,34.93c-1.15,8.31-9,16.68-16.44,23.3.73,5.07-5.5,13.66-9.19,17.57l-2.31-2.19c2.32-2.46,4.73-6.14,4.3-9.34-1.88,1.53-3.54,2.86-4.8,3.93l-3-2.84c1-1.28,2.15-3,3.52-4.89-3.21-.27-6.74,2.36-9.06,4.82l-2.33-2.1c3.69-3.91,11.9-10.7,17-10.27,6.17-7.93,14.12-16.36,22.33-18Z"/>
</g>
</svg>
